<svg xmlns="http://www.w3.org/2000/svg" width="9" height="15" viewBox="0 0 9 15">
    <defs>
        <style>
            .prefix__cls-1{fill:#d0d4db}
        </style>
    </defs>
    <g id="prefix__Icon_menu_point_h" transform="rotate(90 4.5 4.5)">
        <g id="prefix__Icon_menu_point_h-2" data-name="Icon_menu_point_h">
            <path id="prefix__Path" d="M3 1.5A1.5 1.5 0 1 1 1.5 0 1.5 1.5 0 0 1 3 1.5z" class="prefix__cls-1"/>
            <path id="prefix__Path-2" d="M3 1.5A1.5 1.5 0 1 1 1.5 0 1.5 1.5 0 0 1 3 1.5z" class="prefix__cls-1" data-name="Path" transform="translate(6)"/>
            <path id="prefix__Path-3" d="M1.5 3A1.5 1.5 0 1 0 0 1.5 1.5 1.5 0 0 0 1.5 3z" class="prefix__cls-1" data-name="Path" transform="translate(12)"/>
        </g>
        <g id="prefix__Icon_menu_point_h-3" data-name="Icon_menu_point_h" transform="translate(0 6)">
            <path id="prefix__Path-4" d="M3 1.5A1.5 1.5 0 1 1 1.5 0 1.5 1.5 0 0 1 3 1.5z" class="prefix__cls-1" data-name="Path"/>
            <path id="prefix__Path-5" d="M3 1.5A1.5 1.5 0 1 1 1.5 0 1.5 1.5 0 0 1 3 1.5z" class="prefix__cls-1" data-name="Path" transform="translate(6)"/>
            <path id="prefix__Path-6" d="M1.5 3A1.5 1.5 0 1 0 0 1.5 1.5 1.5 0 0 0 1.5 3z" class="prefix__cls-1" data-name="Path" transform="translate(12)"/>
        </g>
    </g>
</svg>
