<svg xmlns="http://www.w3.org/2000/svg" width="16" height="16" viewBox="0 0 16 16">
  <g id="Table__part_Icons_Fillter" data-name="Table / _part / Icons / Fillter" transform="translate(-16 -12)">
    <rect id="Bg" width="16" height="16" rx="4" transform="translate(32 12) rotate(90)" fill="none"/>
    <g id="Icons_Fillter" data-name="Icons / Fillter">
      <path id="Shape" d="M8.666,4A2,2,0,0,1,6.781,2.666H.667a.667.667,0,0,1,0-1.333H6.781a2,2,0,0,1,3.772,0h.781a.667.667,0,1,1,0,1.333h-.781A2,2,0,0,1,8.666,4Zm0-2.667A.667.667,0,1,0,9.334,2,.667.667,0,0,0,8.666,1.333Z" transform="translate(18 14)" fill="#67748a"/>
      <path id="Shape-2" data-name="Shape" d="M3.334,4A2,2,0,0,1,1.447,2.666H.667a.667.667,0,0,1,0-1.333h.781a2,2,0,0,1,3.772,0h6.114a.667.667,0,1,1,0,1.333H5.219A2,2,0,0,1,3.334,4Zm0-2.667A.667.667,0,1,0,4,2,.668.668,0,0,0,3.334,1.333Z" transform="translate(18 18)" fill="#67748a"/>
      <path id="Shape-3" data-name="Shape" d="M8.666,4A2,2,0,0,1,6.781,2.666H.667a.667.667,0,0,1,0-1.333H6.781a2,2,0,0,1,3.772,0h.781a.667.667,0,1,1,0,1.333h-.781A2,2,0,0,1,8.666,4Zm0-2.667A.667.667,0,1,0,9.334,2,.667.667,0,0,0,8.666,1.333Z" transform="translate(18 22)" fill="#67748a"/>
    </g>
  </g>
</svg>
