<svg xmlns="http://www.w3.org/2000/svg" width="16" height="16" viewBox="0 0 16 16">
    <g id="prefix__Icon_settings" transform="translate(-3 -3)">
        <g id="prefix__Icon_settings-2" data-name="Icon_settings" transform="translate(3 3)">
            <path id="prefix__Shape" fill="#67748a" d="M8.5 16h-1a1 1 0 0 1-1-1l-.12-.84a1 1 0 0 0-1.59-.66l-.678.51a1 1 0 0 1-1.414 0l-.708-.71a1 1 0 0 1 0-1.414l.51-.679a1 1 0 0 0-.66-1.587L1 9.5a1 1 0 0 1-1-1v-1a1 1 0 0 1 1-1l.84-.12a1 1 0 0 0 .66-1.59l-.51-.678a1 1 0 0 1 0-1.414l.71-.708a1 1 0 0 1 1.414 0l.678.51a1 1 0 0 0 1.588-.66L6.5 1a1 1 0 0 1 1-1h1a1 1 0 0 1 1 1l.12.84a1 1 0 0 0 1.59.659l.679-.51a1 1 0 0 1 1.414 0l.707.707a1 1 0 0 1 0 1.414l-.51.678a1 1 0 0 0 .659 1.59L15 6.5a1 1 0 0 1 1 1v1a1 1 0 0 1-1 1l-.84.12a1 1 0 0 0-.659 1.59l.51.679a1 1 0 0 1 0 1.414l-.707.707a1 1 0 0 1-1.414 0l-.679-.51a1 1 0 0 0-1.59.659L9.5 15a1 1 0 0 1-1 1zM8 6a2 2 0 1 0 2 2 2 2 0 0 0-2-2z"/>
        </g>
    </g>
</svg>
